<svg id="help_outline_black_24dp" xmlns="http://www.w3.org/2000/svg" width="25" height="25" viewBox="0 0 25 25">
  <path id="패스_2" data-name="패스 2" d="M0,0H25V25H0Z" fill="rgba(0,0,0,0)"/>
  <path id="패스_3" data-name="패스 3" d="M11.375,18.667h2.083V16.583H11.375ZM12.417,2A10.417,10.417,0,1,0,22.833,12.417,10.42,10.42,0,0,0,12.417,2Zm0,18.75a8.333,8.333,0,1,1,8.333-8.333A8.344,8.344,0,0,1,12.417,20.75Zm0-14.583A4.166,4.166,0,0,0,8.25,10.333h2.083a2.083,2.083,0,0,1,4.167,0c0,2.083-3.125,1.823-3.125,5.208h2.083c0-2.344,3.125-2.6,3.125-5.208A4.166,4.166,0,0,0,12.417,6.167Z" transform="translate(0.083 0.083)"/>
</svg>
